<?xml version="1.0" standalone="no"?>
<!DOCTYPE svg PUBLIC "-//W3C//DTD SVG 20010904//EN"
 "http://www.w3.org/TR/2001/REC-SVG-20010904/DTD/svg10.dtd">
<svg version="1.0" xmlns="http://www.w3.org/2000/svg"
 width="3337.000000pt" height="2000.000000pt" viewBox="0 0 3337.000000 2000.000000"
 preserveAspectRatio="xMidYMid meet">

<g transform="translate(0.000000,2000.000000) scale(0.100000,-0.100000)"
fill="#000000" stroke="none">
<path d="M5398 16284 c-85 -20 -155 -59 -224 -126 -71 -68 -117 -147 -139
-239 -22 -95 -22 -2132 0 -2227 21 -89 59 -157 127 -228 195 -204 511 -204
706 0 68 71 106 139 127 228 22 94 22 2132 0 2226 -21 89 -59 157 -127 228
-123 129 -299 180 -470 138z"/>
<path d="M8148 16284 c-85 -20 -155 -59 -224 -126 -71 -68 -117 -147 -139
-239 -22 -95 -22 -2132 0 -2227 21 -89 59 -157 127 -228 195 -204 511 -204
706 0 68 71 106 139 127 228 22 94 22 2132 0 2226 -21 89 -59 157 -127 228
-123 129 -299 180 -470 138z"/>
</g>
</svg>
