<?xml version="1.0" standalone="no"?>
<!DOCTYPE svg PUBLIC "-//W3C//DTD SVG 20010904//EN"
 "http://www.w3.org/TR/2001/REC-SVG-20010904/DTD/svg10.dtd">
<svg version="1.0" xmlns="http://www.w3.org/2000/svg"
 width="3337.000000pt" height="2000.000000pt" viewBox="0 0 3337.000000 2000.000000"
 preserveAspectRatio="xMidYMid meet">

<g transform="translate(0.000000,2000.000000) scale(0.100000,-0.100000)"
fill="#000000" stroke="none">
<path d="M9410 19994 c-25 -2 -135 -11 -245 -19 -386 -30 -865 -100 -1245
-181 -1695 -362 -3217 -1127 -4540 -2283 -200 -174 -717 -691 -891 -891 -1468
-1680 -2320 -3715 -2474 -5910 -10 -147 -15 -370 -15 -705 0 -335 5 -558 15
-705 154 -2187 1005 -4227 2460 -5895 191 -219 701 -729 920 -920 1523 -1329
3360 -2157 5335 -2404 598 -75 776 -81 2545 -81 3651 0 12659 56 14525 90 758
14 1132 47 1658 146 2263 426 4110 1762 5113 3699 641 1237 905 2685 759 4150
-208 2074 -1284 3973 -2963 5234 -1595 1197 -3579 1705 -5562 1425 -1889 -266
-3603 -1249 -4805 -2754 -66 -83 -127 -162 -136 -176 -9 -13 -18 -23 -20 -21
-2 1 -15 63 -29 137 -337 1733 -1125 3330 -2314 4690 -174 200 -691 717 -891
891 -1543 1348 -3396 2182 -5385 2423 -446 54 -532 59 -1170 61 -330 1 -620 1
-645 -1z m-3799 -3704 c178 -34 337 -185 384 -365 23 -89 23 -2151 0 -2240
-50 -189 -214 -338 -406 -368 -247 -38 -490 123 -554 368 -23 89 -23 2151 0
2240 24 89 70 167 141 235 119 115 273 161 435 130z m2750 0 c178 -34 337
-185 384 -365 23 -89 23 -2151 0 -2240 -50 -189 -214 -338 -406 -368 -247 -38
-490 123 -554 368 -23 89 -23 2151 0 2240 24 89 70 167 141 235 119 115 273
161 435 130z"/>
</g>
</svg>
